<?xml version="1.0" standalone="no"?>
<!DOCTYPE svg PUBLIC "-//W3C//DTD SVG 20010904//EN"
 "http://www.w3.org/TR/2001/REC-SVG-20010904/DTD/svg10.dtd">
<svg version="1.0" xmlns="http://www.w3.org/2000/svg"
 width="300.000000pt" height="138.000000pt" viewBox="0 0 300.000000 138.000000"
 preserveAspectRatio="xMidYMid meet">
<metadata>
Created by potrace 1.10, written by Peter Selinger 2001-2011
</metadata>
<g transform="translate(0.000000,138.000000) scale(0.100000,-0.100000)"
fill="#000000" stroke="none">
<path d="M313 1281 c-133 -61 -249 -257 -284 -481 -16 -108 -7 -305 20 -410
43 -164 134 -305 235 -364 40 -23 55 -26 140 -26 84 0 101 3 134 24 198 126
305 442 258 764 -47 316 -198 512 -395 512 -43 0 -81 -7 -108 -19z m225 -35
c97 -49 178 -167 228 -331 25 -84 27 -103 28 -270 0 -168 -2 -186 -27 -269
-70 -227 -193 -357 -340 -358 -78 0 -123 18 -186 77 -65 61 -105 123 -140 222
-41 110 -52 186 -52 332 0 248 66 430 198 551 91 83 188 98 291 46z"/>
<path d="M364 1209 c-42 -12 -115 -78 -154 -140 -80 -123 -123 -350 -101 -530
22 -183 81 -321 172 -403 78 -70 151 -81 240 -36 76 39 160 173 195 310 23 93
28 334 8 425 -58 271 -202 420 -360 374z m161 -57 c57 -39 117 -134 151 -238
28 -85 29 -97 29 -269 0 -172 -1 -184 -29 -269 -34 -104 -94 -199 -151 -239
-185 -128 -387 120 -394 485 -8 387 199 665 394 530z"/>
<path d="M287 892 c-10 -10 -17 -27 -17 -36 0 -18 120 -150 153 -167 21 -12
52 3 67 31 15 28 0 54 -78 128 -69 65 -97 75 -125 44z m176 -173 l-21 -21 -76
76 c-42 42 -76 79 -76 83 0 4 8 15 17 25 16 18 20 16 97 -61 l81 -81 -22 -21z"/>
<path d="M297 669 c-15 -11 -27 -30 -27 -41 0 -26 205 -236 238 -245 14 -3 30
1 42 12 38 34 26 59 -77 163 -54 54 -110 106 -124 115 -25 16 -27 16 -52 -4z
m243 -254 l-19 -21 -119 116 -119 115 21 23 20 23 118 -118 c117 -117 118
-117 98 -138z"/>
<path d="M1000 1003 c-25 -9 -51 -36 -67 -67 -23 -44 -9 -88 42 -137 25 -24
45 -51 45 -61 0 -23 -11 -23 -53 2 -38 22 -56 20 -75 -10 -15 -24 -3 -56 33
-90 37 -35 122 -36 157 -2 31 28 39 28 68 -3 27 -29 61 -32 115 -9 29 12 44
13 62 5 l23 -11 -20 -32 c-27 -45 -25 -64 9 -99 56 -55 129 -23 145 65 4 21
18 44 35 58 16 13 36 35 45 49 15 24 15 28 -6 66 l-21 39 33 48 c44 65 52 127
20 161 -31 34 -80 33 -111 0 -30 -31 -36 -31 -61 0 -14 18 -29 25 -52 25 -49
0 -83 -38 -109 -121 -3 -9 -20 -19 -38 -23 -18 -3 -46 -18 -61 -33 l-29 -27
-47 47 -47 48 39 -3 c28 -2 42 3 52 17 19 26 18 40 -9 70 -22 27 -84 42 -117
28z m80 -38 c18 -9 30 -24 30 -35 0 -24 -8 -25 -34 -5 -25 19 -60 19 -76 1
-21 -26 -7 -59 39 -90 58 -38 77 -83 57 -131 -18 -42 -71 -71 -111 -61 -32 8
-75 49 -75 71 0 23 24 18 50 -10 28 -30 63 -32 90 -5 36 36 25 69 -36 111 -24
16 -49 39 -54 50 -16 29 5 86 38 104 35 18 47 18 82 0z m323 -17 c15 -24 -9
-89 -51 -139 -33 -39 -34 -41 -21 -76 19 -49 39 -60 78 -43 35 14 41 30 11 30
-27 0 -26 28 2 32 19 3 23 13 35 83 14 86 37 128 72 133 74 11 62 -96 -18
-172 -36 -35 -39 -46 -10 -46 27 0 19 -24 -9 -28 -12 -2 -22 -9 -22 -15 0 -7
-3 -23 -7 -37 -6 -24 -6 -24 32 8 28 22 42 29 50 21 7 -7 -6 -25 -43 -57 -42
-37 -52 -53 -52 -77 0 -67 -63 -101 -95 -51 -20 30 -11 52 40 90 21 16 35 36
35 49 0 16 -3 18 -12 9 -13 -13 -47 -16 -73 -6 -31 12 -55 79 -55 153 0 73 11
114 38 144 19 21 61 19 75 -5z m-152 -128 c29 -16 25 -64 -7 -89 -15 -12 -35
-21 -46 -21 -11 0 -18 -5 -15 -12 4 -14 47 -15 85 -3 34 11 27 -12 -10 -35
-42 -25 -63 -25 -88 0 -34 34 -24 95 23 148 23 25 30 26 58 12z"/>
<path d="M1334 905 c-8 -20 -14 -49 -12 -64 l3 -26 22 36 c27 42 33 80 15 86
-7 3 -19 -11 -28 -32z"/>
<path d="M1520 925 c-13 -16 -42 -106 -36 -113 6 -5 52 67 60 95 8 26 -7 38
-24 18z"/>
<path d="M1395 561 c-13 -16 -15 -25 -8 -32 8 -8 14 -5 23 10 17 32 7 46 -15
22z"/>
<path d="M1204 775 c-9 -14 -14 -28 -11 -31 11 -11 47 17 47 36 0 27 -16 25
-36 -5z"/>
<path d="M1760 985 c-39 -41 -71 -312 -41 -349 20 -24 47 -19 73 14 l24 30 39
-30 c42 -31 73 -38 92 -19 8 8 19 6 41 -5 17 -9 38 -16 47 -16 19 0 19 0 0
-37 -18 -37 -8 -73 27 -97 52 -37 109 -8 128 65 7 25 26 54 48 75 35 32 38 33
61 17 22 -14 107 -20 211 -15 14 1 41 1 60 1 19 0 51 3 71 6 23 4 39 3 43 -4
13 -20 55 -11 87 17 25 22 30 33 24 51 -4 12 -18 26 -31 31 -33 13 -32 56 2
106 26 37 26 40 10 67 -9 16 -16 39 -16 51 0 13 -9 31 -21 42 -26 24 -45 12
-82 -51 -35 -59 -43 -67 -90 -83 -28 -10 -45 -11 -71 -2 -23 7 -41 8 -61 0
-35 -13 -38 -10 -25 24 15 41 12 70 -10 99 -19 24 -26 25 -102 25 -80 0 -83 0
-114 -34 -19 -20 -35 -49 -39 -71 -10 -60 -18 -69 -46 -49 -13 9 -34 16 -47
16 -32 0 -90 -59 -98 -99 -7 -35 -23 -39 -48 -12 -16 17 -15 21 19 71 39 58
44 97 18 140 -21 36 -52 50 -112 50 -38 0 -52 -5 -71 -25z m118 -11 c36 -7 57
-48 47 -92 -7 -36 -50 -78 -87 -87 l-28 -7 52 -47 c28 -25 58 -51 66 -57 9 -7
13 -18 9 -28 -9 -22 -25 -12 -97 55 l-55 52 -10 -59 c-5 -33 -13 -58 -18 -57
-4 1 -11 3 -16 5 -4 2 0 68 10 148 10 80 18 150 19 157 0 19 54 28 108 17z
m404 -23 c14 -19 14 -19 26 0 15 24 60 22 75 -3 16 -25 -6 -87 -49 -136 -35
-42 -36 -44 -23 -79 25 -65 79 -73 79 -11 0 40 31 94 59 103 30 9 61 -11 61
-41 0 -30 -41 -74 -70 -74 -11 0 -20 -7 -20 -15 0 -18 38 -20 73 -4 18 8 27
22 31 49 8 52 42 92 74 88 30 -4 43 -28 14 -28 -27 0 -52 -31 -59 -74 -7 -45
14 -56 63 -33 33 16 34 16 34 -3 0 -34 -104 -58 -116 -26 -4 11 -12 10 -42 -5
-40 -21 -68 -24 -77 -9 -3 6 -17 7 -31 4 -68 -17 -114 41 -114 142 l0 57 -40
-44 c-45 -51 -48 -59 -19 -59 27 0 19 -24 -9 -28 -14 -2 -22 -11 -22 -22 0
-10 -3 -27 -7 -37 -5 -13 5 -8 34 15 63 50 67 20 4 -38 -39 -36 -51 -54 -51
-76 0 -58 -54 -96 -88 -62 -26 26 -14 65 28 95 22 15 40 35 40 44 0 9 3 30 6
46 5 25 2 31 -15 36 -29 7 -27 27 3 27 21 0 24 5 30 62 7 61 26 119 47 145 17
19 56 16 71 -6z m445 -26 c-6 -40 -5 -45 13 -45 28 0 25 -28 -2 -32 -21 -3
-24 -11 -31 -77 -9 -84 -1 -104 34 -83 12 8 23 11 26 8 11 -11 -7 -37 -33 -46
-21 -9 -31 -7 -47 7 -18 16 -19 27 -13 104 5 82 4 87 -15 92 -25 7 -16 27 12
27 13 0 19 7 19 23 0 39 12 67 28 67 12 0 14 -9 9 -45z m-639 -107 c21 -21 14
-65 -14 -87 -15 -12 -35 -21 -45 -21 -11 0 -19 -5 -19 -10 0 -19 32 -23 67
-11 19 7 37 10 40 7 11 -11 -20 -36 -58 -48 -34 -10 -42 -9 -59 7 -24 22 -26
71 -6 119 21 50 67 71 94 44z"/>
<path d="M1800 913 c0 -16 -3 -45 -7 -66 l-6 -39 41 21 c43 22 62 46 62 79 0
22 -18 32 -61 32 -25 0 -29 -4 -29 -27z"/>
<path d="M2226 918 c-20 -31 -33 -103 -17 -94 15 9 51 81 51 101 0 22 -17 18
-34 -7z"/>
<path d="M2315 910 c-9 -17 -15 -46 -13 -63 l3 -32 22 36 c26 41 33 80 16 86
-6 2 -19 -10 -28 -27z"/>
<path d="M2447 782 c-17 -18 -23 -42 -11 -42 18 0 44 24 44 40 0 25 -12 25
-33 2z"/>
<path d="M2105 561 c-13 -16 -15 -25 -8 -32 8 -8 14 -5 23 10 17 32 7 46 -15
22z"/>
<path d="M2034 775 c-9 -14 -14 -28 -11 -31 11 -11 47 17 47 36 0 27 -16 25
-36 -5z"/>
<path d="M1061 414 c-14 -17 -29 -24 -55 -24 -25 0 -39 -5 -43 -16 -8 -22 25
-46 56 -41 17 3 30 -2 42 -16 16 -21 18 -21 37 -4 16 15 21 15 31 4 18 -23
282 -27 309 -5 8 7 16 7 26 -1 11 -9 20 -10 36 -1 11 6 26 7 33 3 18 -12 111
-17 197 -12 14 1 19 4 13 6 -8 3 -13 22 -13 48 0 43 0 43 -35 42 -40 -1 -45
-11 -14 -27 13 -7 19 -19 17 -33 -2 -18 -10 -22 -46 -23 -29 -1 -45 3 -49 12
-7 19 -23 18 -39 -3 -7 -10 -15 -15 -19 -11 -10 9 28 108 41 108 6 0 17 -19
23 -42 11 -37 16 -43 42 -45 36 -3 37 5 2 33 -23 18 -25 24 -15 37 15 17 142
24 142 7 0 -6 -7 -10 -15 -10 -17 0 -20 -46 -5 -70 8 -12 10 -10 10 8 0 27 17
62 30 62 5 0 15 -21 22 -47 12 -43 17 -48 43 -48 17 -1 43 -5 58 -9 22 -7 35
-4 56 12 26 19 30 19 44 5 14 -15 18 -15 40 0 21 14 27 14 37 2 12 -15 42 -17
213 -18 156 -1 267 6 276 18 4 5 13 29 20 53 17 62 4 76 -63 66 -28 -4 -55 -6
-61 -6 -5 1 -108 3 -227 5 -202 3 -219 2 -235 -15 -15 -17 -18 -17 -34 -3 -21
20 -141 28 -175 13 -17 -8 -27 -8 -36 0 -8 6 -40 9 -78 6 -105 -8 -143 -8
-178 0 -25 6 -38 4 -52 -9 -14 -12 -24 -15 -32 -8 -14 11 -130 19 -203 14 -11
-1 -50 1 -87 3 -62 5 -69 3 -87 -20z m79 -4 c0 -5 -11 -10 -25 -10 -32 0 -34
-27 -2 -33 l22 -4 -22 -8 c-13 -4 -23 -16 -23 -26 0 -11 -4 -19 -10 -19 -5 0
-10 25 -10 55 l0 55 35 0 c19 0 35 -4 35 -10z m71 -6 c10 -13 10 -20 0 -36 -9
-15 -9 -23 0 -34 6 -8 9 -18 5 -22 -4 -4 -16 4 -26 18 l-20 25 0 -22 c0 -13
-6 -23 -14 -23 -12 0 -14 37 -7 103 2 13 48 7 62 -9z m93 0 c31 -30 12 -94
-27 -94 -30 0 -47 18 -47 48 0 55 40 80 74 46z m63 -16 l10 -33 13 33 c16 43
30 40 30 -7 0 -22 3 -46 6 -55 4 -11 1 -16 -11 -16 -13 0 -16 7 -11 33 l5 32
-11 -27 c-7 -16 -15 -28 -19 -28 -4 0 -12 12 -17 28 l-10 27 -1 -32 c-2 -57
-21 -36 -21 22 0 64 21 76 37 23z m174 16 c16 -20 1 -48 -30 -52 -13 -2 -21
-11 -21 -23 0 -10 -4 -19 -10 -19 -5 0 -10 25 -10 55 0 54 1 55 29 55 16 0 34
-7 42 -16z m349 6 c0 -5 -7 -10 -16 -10 -14 0 -16 -7 -11 -45 5 -36 4 -45 -8
-45 -11 0 -15 12 -15 45 0 33 -4 45 -15 45 -8 0 -15 5 -15 10 0 6 18 10 40 10
22 0 40 -4 40 -10z m84 -6 c34 -33 7 -98 -37 -92 -12 2 -28 15 -36 29 -13 24
-13 29 2 53 20 29 48 34 71 10z m121 -19 c0 -23 -5 -31 -22 -33 -15 -2 -23
-10 -23 -23 0 -10 -4 -19 -10 -19 -5 0 -10 25 -10 56 l0 55 33 -3 c28 -3 32
-6 32 -33z m86 19 c9 -12 10 -20 2 -33 -7 -11 -8 -23 -2 -32 12 -19 11 -29 -2
-29 -6 0 -13 9 -16 20 -3 11 -9 20 -14 20 -5 0 -9 -9 -9 -20 0 -11 -4 -20 -10
-20 -5 0 -10 25 -10 55 0 51 2 55 24 55 13 0 29 -7 37 -16z m89 6 c0 -5 -9
-10 -20 -10 -11 0 -20 -4 -20 -10 0 -5 7 -10 15 -10 8 0 15 -4 15 -10 0 -5 -7
-10 -15 -10 -8 0 -15 -7 -15 -15 0 -8 9 -15 20 -15 11 0 20 -5 20 -11 0 -6
-14 -9 -31 -7 -31 3 -32 4 -31 51 0 26 1 49 1 52 2 10 61 5 61 -5z m78 -8 c3
-9 -4 -11 -25 -7 l-28 6 28 -24 c37 -31 33 -62 -7 -62 -16 0 -31 6 -34 13 -3
9 3 11 22 6 34 -8 33 5 -1 32 -24 19 -26 24 -14 38 16 19 52 18 59 -2z m82 8
c0 -5 -9 -10 -20 -10 -11 0 -20 -4 -20 -10 0 -5 7 -10 15 -10 22 0 18 -17 -5
-23 -28 -7 -25 -27 5 -27 14 0 25 -5 25 -11 0 -6 -14 -9 -32 -7 -30 3 -33 6
-36 42 -2 21 -1 44 2 52 6 16 66 19 66 4z m50 -22 l20 -33 0 33 c0 17 5 32 10
32 6 0 10 -25 10 -55 0 -30 -3 -55 -7 -55 -5 0 -18 17 -30 38 l-22 37 -1 -38
c0 -23 -4 -36 -10 -32 -8 5 -8 84 -1 103 3 8 14 -2 31 -30z m130 22 c0 -5 -7
-10 -16 -10 -13 0 -16 -7 -12 -32 6 -37 1 -58 -13 -58 -5 0 -9 20 -9 45 0 33
-4 45 -15 45 -8 0 -15 5 -15 10 0 6 18 10 40 10 22 0 40 -4 40 -10z m-1570
-45 c0 -10 -11 -15 -35 -15 -24 0 -35 5 -35 15 0 10 11 15 35 15 24 0 35 -5
35 -15z"/>
<path d="M1254 386 c-9 -23 0 -51 17 -54 19 -4 32 23 24 49 -7 22 -33 25 -41
5z"/>
<path d="M1924 386 c-9 -23 0 -51 17 -54 20 -4 30 28 17 52 -11 20 -27 21 -34
2z"/>
<path d="M2631 362 c-2 -21 43 -36 68 -23 11 7 21 17 20 24 0 9 -2 9 -6 0 -2
-7 -20 -13 -38 -13 -18 0 -36 6 -38 13 -4 9 -6 9 -6 -1z"/>
</g>
</svg>
